<?xml version="1.0" encoding="UTF-8"?>
<!--
Font Awesome Pro 5.15.1 by @fontawesome - https://fontawesome.com
License - https://fontawesome.com/license (Commercial License)
-->
<svg xmlns="http://www.w3.org/2000/svg" style="display: none;">
  <symbol id="long-arrow-down" viewBox="0 0 256 512">
    <path d="M252.485 343.03l-7.07-7.071c-4.686-4.686-12.284-4.686-16.971 0L145 419.887V44c0-6.627-5.373-12-12-12h-10c-6.627 0-12 5.373-12 12v375.887l-83.444-83.928c-4.686-4.686-12.284-4.686-16.971 0l-7.07 7.071c-4.686 4.686-4.686 12.284 0 16.97l116 116.485c4.686 4.686 12.284 4.686 16.971 0l116-116.485c4.686-4.686 4.686-12.284-.001-16.97z"></path>
  </symbol>
  <symbol id="long-arrow-left" viewBox="0 0 448 512">
    <path d="M136.97 380.485l7.071-7.07c4.686-4.686 4.686-12.284 0-16.971L60.113 273H436c6.627 0 12-5.373 12-12v-10c0-6.627-5.373-12-12-12H60.113l83.928-83.444c4.686-4.686 4.686-12.284 0-16.971l-7.071-7.07c-4.686-4.686-12.284-4.686-16.97 0l-116.485 116c-4.686 4.686-4.686 12.284 0 16.971l116.485 116c4.686 4.686 12.284 4.686 16.97-.001z"></path>
  </symbol>
  <symbol id="long-arrow-right" viewBox="0 0 448 512">
    <path d="M311.03 131.515l-7.071 7.07c-4.686 4.686-4.686 12.284 0 16.971L387.887 239H12c-6.627 0-12 5.373-12 12v10c0 6.627 5.373 12 12 12h375.887l-83.928 83.444c-4.686 4.686-4.686 12.284 0 16.971l7.071 7.07c4.686 4.686 12.284 4.686 16.97 0l116.485-116c4.686-4.686 4.686-12.284 0-16.971L328 131.515c-4.686-4.687-12.284-4.687-16.97 0z"></path>
  </symbol>
  <symbol id="long-arrow-up" viewBox="0 0 256 512">
    <path d="M3.515 168.97l7.07 7.071c4.686 4.686 12.284 4.686 16.971 0L111 92.113V468c0 6.627 5.373 12 12 12h10c6.627 0 12-5.373 12-12V92.113l83.444 83.928c4.686 4.686 12.284 4.686 16.971 0l7.07-7.071c4.686-4.686 4.686-12.284 0-16.97l-116-116.485c-4.686-4.686-12.284-4.686-16.971 0L3.515 152c-4.687 4.686-4.687 12.284 0 16.97z"></path>
  </symbol>
</svg>
