<?xml version="1.0" encoding="utf-8"?>
<!-- Generator: Adobe Illustrator 16.0.0, SVG Export Plug-In . SVG Version: 6.00 Build 0)  -->
<!DOCTYPE svg PUBLIC "-//W3C//DTD SVG 1.1//EN" "http://www.w3.org/Graphics/SVG/1.1/DTD/svg11.dtd">
<svg version="1.1" id="Layer_1" xmlns="http://www.w3.org/2000/svg" xmlns:xlink="http://www.w3.org/1999/xlink" x="0px" y="0px"
	 width="257px" height="50.1px" viewBox="0 0 257 50.1" enable-background="new 0 0 257 50.1" xml:space="preserve">
<g>
	
		<image overflow="visible" opacity="0.75" width="138" height="136" xlink:href="6F4811119BFA3095.png"  transform="matrix(1 0 0 1 -45 -40.0586)">
	</image>
	<g>
		<path fill="#FFFFFF" d="M8.7,50.1h1.4v-5.2H8.7c-1.9,0-3.5-1.6-3.5-3.5V13.9c0-1.9,1.6-3.5,3.5-3.5h38.4V5.2H8.7
			C3.9,5.2,0,9.1,0,13.9v27.5C0,46.2,3.9,50.1,8.7,50.1"/>
	</g>
</g>
<g>
	
		<image overflow="visible" opacity="0.75" width="150" height="136" xlink:href="6F4811119BFA3099.png"  transform="matrix(1 0 0 1 -19 -40.0586)">
	</image>
	<g>
		<path fill="#FFFFFF" d="M76.5,50.1c4.8,0,8.7-3.9,8.7-8.7V13.9c0-4.8-3.9-8.7-8.7-8.7H63.1v5.2h13.4c1.9,0,3.5,1.6,3.5,3.5v27.5
			c0,1.9-1.6,3.5-3.5,3.5H26.2v5.2H76.5z"/>
	</g>
</g>
<g>
	
		<image overflow="visible" opacity="0.75" width="99" height="102" xlink:href="6F4811119BFA309A.png"  transform="matrix(1 0 0 1 50 -32.0586)">
	</image>
	<g>
		<path fill="#FFFFFF" d="M102.4,24c0.7-0.6,1-1.4,1-2.4c0-1.5-0.9-2.5-2.6-2.8v-0.1c0.8-0.1,1.3-0.4,1.7-0.9c0.3-0.4,0.6-1,0.6-1.7
			c0-1-0.3-1.7-1-2.1c-0.7-0.5-1.8-0.7-3.3-0.7h-3.2v11.5h4C100.7,24.9,101.7,24.6,102.4,24 M96.8,14.5h2c1,0,1.7,0.1,2.2,0.4
			c0.5,0.3,0.7,0.8,0.7,1.4c0,0.7-0.2,1.2-0.6,1.5c-0.4,0.3-1.1,0.5-2.1,0.5h-2.2V14.5z M96.8,23.8v-4.3h2.3c1,0,1.7,0.1,2.2,0.5
			c0.5,0.3,0.8,0.9,0.8,1.6c0,0.8-0.2,1.3-0.7,1.7c-0.5,0.3-1.2,0.6-2.1,0.6H96.8z"/>
	</g>
</g>
<g>
	
		<image overflow="visible" opacity="0.75" width="98" height="102" xlink:href="6F4811119BFA309B.png"  transform="matrix(1 0 0 1 61 -32.0586)">
	</image>
	<g>
		<polygon fill="#FFFFFF" points="113.2,23.7 108,23.7 108,19.4 112.9,19.4 112.9,18.2 108,18.2 108,14.5 113.2,14.5 113.2,13.3 
			106.7,13.3 106.7,24.9 113.2,24.9 		"/>
	</g>
</g>
<g>
	
		<image overflow="visible" opacity="0.75" width="100" height="102" xlink:href="6F4811119BFA309C.png"  transform="matrix(1 0 0 1 71 -32.0586)">
	</image>
	<g>
		<path fill="#FFFFFF" d="M125.8,19c0-1.8-0.5-3.2-1.5-4.1c-1-1-2.4-1.5-4.2-1.5h-3.5v11.5h3.2c1.9,0,3.5-0.5,4.5-1.5
			C125.2,22.4,125.8,20.9,125.8,19 M119.5,23.7h-1.7v-9.2h1.9c1.5,0,2.6,0.4,3.4,1.2c0.8,0.8,1.1,1.9,1.1,3.4c0,1.5-0.4,2.7-1.2,3.5
			C122.3,23.3,121.1,23.7,119.5,23.7"/>
	</g>
</g>
<g>
	
		<image overflow="visible" opacity="0.75" width="99" height="102" xlink:href="6F4811119BFA3098.png"  transform="matrix(1 0 0 1 84 -32.0586)">
	</image>
	<g>
		<path fill="#FFFFFF" d="M135.7,24.9h1.6l-3.1-5.2c1.5-0.6,2.3-1.6,2.3-3.1c0-1.1-0.3-1.9-1-2.5c-0.7-0.6-1.7-0.8-3.2-0.8h-3.2
			v11.6h1.3V20h2.4L135.7,24.9z M130.5,18.9v-4.4h1.7c1,0,1.7,0.1,2.1,0.5c0.4,0.3,0.7,0.9,0.7,1.7c0,0.8-0.2,1.3-0.7,1.7
			c-0.4,0.3-1.2,0.6-2.1,0.6H130.5z"/>
	</g>
</g>
<g>
	
		<image overflow="visible" opacity="0.75" width="93" height="102" xlink:href="6F4811119BFA3086.png"  transform="matrix(1 0 0 1 94 -32.0586)">
	</image>
	<g>
		<rect x="139.9" y="13.3" fill="#FFFFFF" width="1.3" height="11.5"/>
	</g>
</g>
<g>
	
		<image overflow="visible" opacity="0.75" width="95" height="105" xlink:href="6F4811119BFA3087.png"  transform="matrix(1 0 0 1 97 -32.0586)">
	</image>
	<g>
		<path fill="#FFFFFF" d="M144.8,26.2c-0.3,0.3-0.7,0.5-1.2,0.5c-0.4,0-0.8-0.1-1.2-0.1v1.1c0.3,0.1,1.2,0.1,1.7,0.1
			c1,0,1.2-0.4,1.7-1c0.5-0.6,0.6-1,0.6-2.1V13.3h-1.3v11.5C145.2,25.5,145.1,26,144.8,26.2"/>
	</g>
</g>
<g>
	
		<image overflow="visible" opacity="0.75" width="97" height="102" xlink:href="6F4811119BFA3088.png"  transform="matrix(1 0 0 1 105 -32.0586)">
	</image>
	<g>
		<polygon fill="#FFFFFF" points="151.7,20 156.6,20 156.6,18.7 151.7,18.7 151.7,14.5 156.9,14.5 156.9,13.3 150.4,13.3 
			150.4,24.9 151.7,24.9 		"/>
	</g>
</g>
<g>
	
		<image overflow="visible" opacity="0.75" width="99" height="103" xlink:href="156A778B8B290510.png"  transform="matrix(1 0 0 1 113 -32.0586)">
	</image>
	<g>
		<path fill="#FFFFFF" d="M162.9,18.5c-0.7-0.3-1.2-0.5-1.6-0.7c-0.3-0.2-0.6-0.5-0.8-0.7c-0.1-0.3-0.2-0.6-0.2-1
			c0-0.6,0.2-1,0.6-1.2c0.4-0.3,1-0.5,1.7-0.5c0.9,0,1.9,0.2,2.8,0.6l0.4-1.2c-1-0.4-2-0.6-3.2-0.6c-1.1,0-2,0.3-2.6,0.8
			c-0.7,0.6-1,1.2-1,2.1c0,0.8,0.2,1.5,0.7,2.1c0.5,0.6,1.2,1,2.3,1.4c0.8,0.3,1.3,0.6,1.7,0.8c0.3,0.2,0.6,0.5,0.8,0.7
			c0.1,0.3,0.2,0.6,0.2,1c0,0.6-0.2,1.1-0.7,1.5c-0.5,0.3-1.1,0.5-2,0.5c-0.6,0-1.1-0.1-1.7-0.2c-0.6-0.1-1.1-0.3-1.5-0.5v1.3
			c0.8,0.3,1.8,0.6,3.2,0.6c1.2,0,2.3-0.3,3-0.8c0.8-0.6,1.1-1.4,1.1-2.3c0-0.8-0.2-1.5-0.7-1.9C165,19.4,164.2,18.9,162.9,18.5"/>
	</g>
</g>
<g>
	
		<image overflow="visible" opacity="0.75" width="99" height="102" xlink:href="156A778B8B290511.png"  transform="matrix(1 0 0 1 124 -32.0586)">
	</image>
	<g>
		<polygon fill="#FFFFFF" points="169.3,13.3 169.3,24.9 170.7,24.9 170.7,20.4 171.8,19.3 176.1,24.9 177.6,24.9 172.8,18.4 
			177.4,13.3 175.8,13.3 170.7,19.1 170.7,13.3 		"/>
	</g>
</g>
<g>
	
		<image overflow="visible" opacity="0.75" width="100" height="103" xlink:href="156A778B8B290512.png"  transform="matrix(1 0 0 1 134 -32.0586)">
	</image>
	<g>
		<path fill="#FFFFFF" d="M188.8,20.8v-7.5h-1.4v7.5c0,1-0.3,1.7-0.8,2.2c-0.6,0.5-1.3,0.8-2.3,0.8c-1,0-1.8-0.3-2.3-0.8
			c-0.6-0.6-0.8-1.2-0.8-2.2v-7.5h-1.3v7.5c0,1.3,0.3,2.3,1.2,3.1c0.8,0.8,1.9,1.2,3.2,1.2c1.4,0,2.5-0.3,3.2-1.1
			C188.3,23.1,188.8,22.1,188.8,20.8"/>
	</g>
</g>
<g>
	
		<image overflow="visible" opacity="0.75" width="100" height="102" xlink:href="156A778B8B290513.png"  transform="matrix(1 0 0 1 147 -32.0586)">
	</image>
	<g>
		<path fill="#FFFFFF" d="M200.1,24.9h1.5V13.3h-1.2V20c0,0.3,0,0.9,0.1,1.7c0,0.8,0.1,1.2,0.1,1.4h-0.1l-6.3-9.7h-1.6v11.5h1.2
			v-6.6c0-1-0.1-2-0.1-3.1h0.1L200.1,24.9z"/>
	</g>
</g>
<g>
	
		<image overflow="visible" opacity="0.75" width="100" height="102" xlink:href="156A778B8B290517.png"  transform="matrix(1 0 0 1 160 -32.0586)">
	</image>
	<g>
		<path fill="#FFFFFF" d="M205.7,24.9h3.2c1.9,0,3.5-0.5,4.5-1.5c1-1,1.5-2.5,1.5-4.4c0-1.8-0.5-3.2-1.5-4.1c-1-1-2.4-1.5-4.2-1.5
			h-3.5L205.7,24.9L205.7,24.9z M207,14.5h1.9c1.5,0,2.6,0.4,3.4,1.2s1.2,1.9,1.2,3.4c0,1.5-0.4,2.7-1.2,3.5c-0.8,0.8-2,1.2-3.6,1.2
			H207V14.5z"/>
	</g>
</g>
<g>
	
		<image overflow="visible" opacity="0.75" width="92" height="102" xlink:href="156A778B8B29051C.png"  transform="matrix(1 0 0 1 173 -32.0586)">
	</image>
	<g>
		<rect x="218.2" y="13.3" fill="#FFFFFF" width="1.3" height="11.5"/>
	</g>
</g>
<g>
	
		<image overflow="visible" opacity="0.75" width="101" height="103" xlink:href="156A778B8B29051E.png"  transform="matrix(1 0 0 1 177 -32.0586)">
	</image>
	<g>
		<path fill="#FFFFFF" d="M228.5,25.1c0.8,0,1.6-0.1,2.2-0.1c0.6-0.1,1.2-0.3,1.9-0.4v-5.6h-3.9V20h2.6v3.6
			c-0.8,0.2-1.5,0.3-2.3,0.3c-1.4,0-2.6-0.4-3.4-1.2c-0.8-0.8-1.2-2-1.2-3.5c0-1.5,0.4-2.6,1.2-3.5c0.8-0.8,1.9-1.2,3.3-1.2
			c1,0,2,0.2,3,0.7l0.6-1.2c-1-0.5-2.2-0.7-3.5-0.7c-1.2,0-2.3,0.2-3.2,0.7c-0.9,0.5-1.6,1.2-2.1,2.1c-0.5,0.9-0.7,1.9-0.7,3.2
			c0,1.9,0.5,3.3,1.4,4.4C225.4,24.5,226.8,25.1,228.5,25.1"/>
	</g>
</g>
<g>
	
		<image overflow="visible" opacity="0.75" width="102" height="103" xlink:href="156A778B8B29051F.png"  transform="matrix(1 0 0 1 50 -14.0586)">
	</image>
	<g>
		<path fill="#FFFFFF" d="M96.7,35.9c0-1.1-0.1-2.1-0.1-2.9h0.1l3.9,10.2h1.1l3.9-10.2h0.1c-0.1,1-0.1,1.9-0.1,2.8v7.5h1.3V31.7h-2
			l-3.7,9.5h-0.1l-3.7-9.5h-2v11.5h1.2V35.9z"/>
	</g>
</g>
<g>
	
		<image overflow="visible" opacity="0.75" width="101" height="103" xlink:href="156A778B8B29051B.png"  transform="matrix(1 0 0 1 64 -14.0586)">
	</image>
	<g>
		<path fill="#FFFFFF" d="M113.8,31.7l-4.6,11.6h1.4l1.5-3.7h4.6l1.5,3.7h1.4L115,31.7H113.8z M112.5,38.4l1.4-3.6
			c0.2-0.6,0.4-1.2,0.5-1.7c0.2,0.7,0.3,1.2,0.6,1.7l1.3,3.6H112.5z"/>
	</g>
</g>
<g>
	
		<image overflow="visible" opacity="0.75" width="100" height="103" xlink:href="156A778B8B290529.png"  transform="matrix(1 0 0 1 76 -14.0586)">
	</image>
	<g>
		<path fill="#FFFFFF" d="M121.9,31.7v11.5h1.3v-4.8h2.4l2.8,4.8h1.6L127,38c1.5-0.6,2.3-1.6,2.3-3.1c0-1.1-0.3-1.9-1-2.4
			c-0.7-0.6-1.7-0.8-3.2-0.8H121.9z M127.9,35.1c0,0.8-0.2,1.3-0.7,1.7c-0.4,0.3-1.2,0.6-2.1,0.6h-1.9v-4.4h1.7c1,0,1.7,0.1,2.1,0.5
			C127.7,33.8,127.9,34.3,127.9,35.1"/>
	</g>
</g>
<g>
	
		<image overflow="visible" opacity="0.75" width="100" height="103" xlink:href="156A778B8B29053D.png"  transform="matrix(1 0 0 1 87 -14.0586)">
	</image>
	<g>
		<polygon fill="#FFFFFF" points="134.1,38.7 135.3,37.7 139.5,43.3 141.1,43.3 136.3,36.7 140.9,31.7 139.3,31.7 134.1,37.4 
			134.1,31.7 132.8,31.7 132.8,43.3 134.1,43.3 		"/>
	</g>
</g>
<g>
	
		<image overflow="visible" opacity="0.75" width="97" height="103" xlink:href="156A778B8B29053E.png"  transform="matrix(1 0 0 1 98 -14.0586)">
	</image>
	<g>
		<polygon fill="#FFFFFF" points="150,42 144.8,42 144.8,37.8 149.6,37.8 149.6,36.7 144.8,36.7 144.8,32.9 150,32.9 150,31.7 
			143.5,31.7 143.5,43.3 150,43.3 		"/>
	</g>
</g>
<g>
	
		<image overflow="visible" opacity="0.75" width="100" height="103" xlink:href="156A778B8B29053C.png"  transform="matrix(1 0 0 1 106 -14.0586)">
	</image>
	<g>
		<polygon fill="#FFFFFF" points="151.9,32.9 155.5,32.9 155.5,43.3 156.9,43.3 156.9,32.9 160.5,32.9 160.5,31.7 151.9,31.7 		"/>
	</g>
</g>
<g>
	
		<image overflow="visible" opacity="0.75" width="92" height="103" xlink:href="156A778B8B290534.png"  transform="matrix(1 0 0 1 118 -14.0586)">
	</image>
	<g>
		<rect x="163.1" y="31.7" fill="#FFFFFF" width="1.3" height="11.5"/>
	</g>
</g>
<g>
	
		<image overflow="visible" opacity="0.75" width="100" height="103" xlink:href="156A778B8B290535.png"  transform="matrix(1 0 0 1 123 -14.0586)">
	</image>
	<g>
		<path fill="#FFFFFF" d="M176.2,38.3c0,0.3,0,0.9,0.1,1.7c0.1,0.8,0.1,1.2,0.1,1.4h-0.1l-6.3-9.7h-1.5v11.5h1.2v-6.6
			c0-1-0.1-2-0.1-3.1h0.1l6.4,9.7h1.5V31.7h-1.2L176.2,38.3L176.2,38.3z"/>
	</g>
</g>
<g>
	
		<image overflow="visible" opacity="0.75" width="101" height="103" xlink:href="156A778B8B290502.png"  transform="matrix(1 0 0 1 135 -14.0586)">
	</image>
	<g>
		<path fill="#FFFFFF" d="M186.5,38.4h2.6V42c-0.8,0.2-1.5,0.3-2.3,0.3c-1.4,0-2.6-0.4-3.4-1.2c-0.8-0.8-1.2-2-1.2-3.5
			c0-1.5,0.4-2.6,1.2-3.5c0.8-0.8,1.9-1.2,3.3-1.2c1,0,1.9,0.2,3,0.7l0.6-1.2c-1-0.5-2.2-0.7-3.5-0.7c-1.2,0-2.3,0.2-3.2,0.7
			c-0.9,0.5-1.6,1.2-2.1,2.1c-0.5,0.9-0.8,1.9-0.8,3.2c0,1.9,0.5,3.3,1.4,4.3c1,1,2.3,1.6,4.1,1.6c0.8,0,1.6-0.1,2.2-0.1
			c0.6-0.1,1.2-0.3,1.9-0.4v-5.6h-3.9V38.4z"/>
	</g>
</g>
<g>
	
		<image overflow="visible" opacity="0.75" width="101" height="103" xlink:href="156A778B8B290503.png"  transform="matrix(1 0 0 1 154 -14.0586)">
	</image>
	<g>
		<path fill="#FFFFFF" d="M202.4,39.6h4.6l1.5,3.7h1.4l-4.6-11.6h-1.1l-4.6,11.6h1.4L202.4,39.6z M204.2,34.8
			c0.2-0.6,0.3-1.2,0.5-1.7c0.2,0.7,0.3,1.2,0.6,1.7l1.4,3.6h-3.7L204.2,34.8z"/>
	</g>
</g>
<g>
	
		<image overflow="visible" opacity="0.75" width="100" height="103" xlink:href="156A778B8B290504.png"  transform="matrix(1 0 0 1 167 -14.0586)">
	</image>
	<g>
		<path fill="#FFFFFF" d="M219.9,41.8c1-1,1.6-2.5,1.6-4.3c0-1.8-0.5-3.2-1.5-4.1c-1-1-2.4-1.5-4.2-1.5h-3.5v11.5h3.2
			C217.4,43.3,218.9,42.8,219.9,41.8 M213.6,42.1v-9.3h1.9c1.5,0,2.6,0.4,3.4,1.2c0.8,0.8,1.1,1.9,1.1,3.4c0,1.5-0.4,2.7-1.2,3.5
			c-0.8,0.8-2,1.2-3.6,1.2H213.6z"/>
	</g>
</g>
<g>
	
		<image overflow="visible" opacity="0.75" width="100" height="103" xlink:href="156A778B8B290505.png"  transform="matrix(1 0 0 1 178 -14.0586)">
	</image>
	<g>
		<path fill="#FFFFFF" d="M223.3,31.7l4.1,11.5h1.3l4.1-11.5h-1.4l-2.6,7.5c-0.3,0.8-0.6,1.7-0.8,2.6c-0.2-0.8-0.4-1.7-0.8-2.5
			l-2.7-7.5L223.3,31.7L223.3,31.7z"/>
	</g>
</g>
<g>
	
		<image overflow="visible" opacity="0.75" width="92" height="103" xlink:href="156A778B8B290506.png"  transform="matrix(1 0 0 1 190 -14.0586)">
	</image>
	<g>
		<rect x="235.3" y="31.7" fill="#FFFFFF" width="1.3" height="11.5"/>
	</g>
</g>
<g>
	
		<image overflow="visible" opacity="0.75" width="98" height="103" xlink:href="156A778B8B290555.png"  transform="matrix(1 0 0 1 195 -14.0586)">
	</image>
	<g>
		<polygon fill="#FFFFFF" points="240.6,43.3 247.1,43.3 247.1,42 242,42 242,37.8 246.7,37.8 246.7,36.7 242,36.7 242,32.9 
			247.1,32.9 247.1,31.7 240.6,31.7 		"/>
	</g>
</g>
<g>
	
		<image overflow="visible" opacity="0.75" width="98" height="103" xlink:href="156A778B8B290569.png"  transform="matrix(1 0 0 1 204 -14.0586)">
	</image>
	<g>
		<path fill="#FFFFFF" d="M255.9,42.6c0.8-0.6,1.1-1.4,1.1-2.3c0-0.8-0.2-1.5-0.7-1.9s-1.3-1-2.5-1.4c-0.8-0.3-1.2-0.5-1.6-0.7
			c-0.3-0.2-0.6-0.5-0.8-0.7c-0.1-0.3-0.2-0.6-0.2-1c0-0.6,0.2-1,0.6-1.2c0.4-0.3,1-0.5,1.7-0.5c0.9,0,1.8,0.2,2.8,0.6l0.4-1.2
			c-1-0.4-2-0.6-3.2-0.6c-1.1,0-2,0.3-2.6,0.8c-0.7,0.6-1,1.2-1,2.1c0,0.8,0.2,1.5,0.7,2.1c0.5,0.6,1.2,1,2.3,1.4
			c0.8,0.3,1.3,0.5,1.7,0.8c0.3,0.2,0.6,0.5,0.8,0.7c0.1,0.3,0.2,0.6,0.2,1c0,0.6-0.2,1.1-0.7,1.4c-0.5,0.3-1.1,0.5-2,0.5
			c-0.6,0-1.1-0.1-1.7-0.1c-0.6-0.1-1.1-0.3-1.5-0.5v1.3c0.8,0.3,1.8,0.6,3.2,0.6C254.1,43.4,255.1,43.2,255.9,42.6"/>
	</g>
</g>
<g>
	
		<image overflow="visible" opacity="0.75" width="122" height="115" xlink:href="156A778B8B29056E.png"  transform="matrix(1 0 0 1 -30 -28.0586)">
	</image>
	<g>
		<path fill="#FFFFFF" d="M20.9,29.2c0-2.4,0.3-4.1,1-5.2s1.7-1.6,3.1-1.6c1,0,1.9,0.3,2.3,1.1c0.5,0.8,0.8,1.9,0.8,3.3v12h5.6V28.6
			c0-2.1,0.3-3.7,1-4.7c0.7-1,1.7-1.5,3.1-1.5c1,0,1.9,0.3,2.3,1.1c0.5,0.8,0.8,1.9,0.8,3.3v10.1v1.9h5.6v-1.9V25.5
			c0-2.6-0.6-4.6-1.8-5.7c-1.2-1.2-3-1.8-5.3-1.8c-1.4,0-2.6,0.3-3.7,0.8c-1.1,0.6-1.9,1.2-2.4,2.2h-0.5c-1.1-2-3.2-3-6.3-3
			c-1.4,0-2.6,0.3-3.6,0.8c-1,0.6-1.9,1.2-2.4,2.2h-0.3l-0.8-2.6h-4.3v23.1h5.6V29.2H20.9z"/>
	</g>
</g>
<g>
	
		<image overflow="visible" opacity="0.75" width="96" height="97" xlink:href="156A778B8B290568.png"  transform="matrix(1 0 0 1 -30 -1.0586)">
	</image>
	<g>
		<rect x="15.3" y="44.9" fill="#FFFFFF" width="5.6" height="5.2"/>
	</g>
</g>
<g>
	
		<image overflow="visible" opacity="0.75" width="110" height="122" xlink:href="156A778B8B290566.png"  transform="matrix(1 0 0 1 7 -37.0586)">
	</image>
	<g>
		<path fill="#FFFFFF" d="M52.3,38.9h4.3h1.3v-2.3c1.4,1.7,3.2,2.6,5.7,2.6c2.4,0,4.3-0.9,5.8-2.8c1.4-1.9,2.1-4.5,2.1-7.9
			c0-3.3-0.7-5.9-2.1-7.8C68,18.9,66.1,18,63.7,18c-2.6,0-4.5,1-5.8,3v-4.1V8.7h-5.6V38.9z M57.9,28c0-1.9,0.3-3.4,1-4.2
			c0.6-0.8,1.7-1.3,3-1.3c1.2,0,2.1,0.5,2.8,1.5c0.7,1,1,2.6,1,4.6c0,2-0.3,3.6-1,4.6c-0.7,1-1.6,1.6-2.8,1.6
			c-1.4,0-2.5-0.5-3.1-1.4c-0.7-1-1-2.6-1-4.8V28z"/>
	</g>
</g>
<g>
	
		<image overflow="visible" opacity="0.75" width="96" height="96" xlink:href="156A778B8B290567.png"  transform="matrix(1 0 0 1 7 -45.0586)">
	</image>
	<g>
		<rect x="52.3" fill="#FFFFFF" width="5.6" height="5.2"/>
	</g>
</g>
</svg>
